<svg width="77" height="80" viewBox="0 0 77 80" fill="none" xmlns="http://www.w3.org/2000/svg">
<path d="M75 17.0503V25.8284C75 31.5595 71.3999 35.1869 65.7117 35.1869H53.3993V9.83192C53.3993 5.8056 56.6754 2.54102 60.6715 2.54102C64.5957 2.57729 68.1958 4.17331 70.7879 6.78498C73.38 9.43292 75 13.0602 75 17.0503Z" stroke="#292D32" stroke-width="4" stroke-miterlimit="10" stroke-linecap="round" stroke-linejoin="round"/>
<path d="M2.99756 20.6776V71.46C2.99756 74.4707 6.3816 76.1755 8.75768 74.3619L14.914 69.7189C16.354 68.6307 18.3701 68.7758 19.6661 70.0817L25.6423 76.1393C27.0463 77.5539 29.3505 77.5539 30.7546 76.1393L36.8027 70.0454C38.0627 68.7758 40.0788 68.6307 41.4829 69.7189L47.6391 74.3619C50.0152 76.1393 53.3993 74.4344 53.3993 71.46V9.79565C53.3993 5.8056 56.6394 2.54102 60.5995 2.54102H20.9982H17.398C6.59768 2.54102 2.99756 9.03391 2.99756 17.0503V20.6776Z" stroke="#292D32" stroke-width="4" stroke-miterlimit="10" stroke-linecap="round" stroke-linejoin="round"/>
<path d="M17.3979 27.9323H38.9987" stroke="#292D32" stroke-width="4" stroke-linecap="round" stroke-linejoin="round"/>
<path d="M20.0981 42.4414H36.2987" stroke="#292D32" stroke-width="4" stroke-linecap="round" stroke-linejoin="round"/>
</svg>
