<svg width="74" height="74" viewBox="0 0 74 74" fill="none" xmlns="http://www.w3.org/2000/svg">
<path d="M42.7464 66.5604C42.1857 67.2151 41.4852 67.7423 40.6603 68.0874C39.8355 68.4324 38.9642 68.65 38.0152 68.7036C36.4128 68.7931 34.9663 68.5187 33.6291 67.8621C32.3074 67.2238 31.0949 66.2761 30.0072 65.0009C28.4223 63.1428 27.1024 60.7206 26.0785 57.7346C25.0547 54.7485 24.2957 51.4532 23.8169 47.867C23.3382 44.2444 23.0928 40.5674 23.081 36.7996C23.1002 33.0318 23.3526 29.3553 23.8384 25.77C24.3396 22.2029 25.0895 18.9273 26.1035 15.9978C27.1331 13.0501 28.4578 10.6306 30.0775 8.73917C31.1365 7.50248 32.3353 6.53895 33.6426 5.88495C34.9656 5.21277 36.4282 4.88656 38.0304 4.94272C40.0061 4.96284 41.5766 5.67424 42.7264 7.02229C43.1615 7.53237 43.5032 8.15156 43.7047 8.82522C43.9219 9.5171 43.9989 10.2635 43.8737 11.0642L42.386 21.2376C42.2763 22.0201 42.1201 22.6753 41.9173 23.2393C41.7301 23.7852 41.4807 24.2582 41.1848 24.6037C40.8111 25.0402 40.3285 25.3492 39.7528 25.5124C39.1926 25.6939 38.5236 25.7843 37.7769 25.7835L35.3656 25.8358C35.0233 25.8355 34.7432 25.9808 34.494 26.2718C34.3694 26.4173 34.2759 26.5628 34.1824 26.7448C34.1044 26.9449 34.0576 27.1087 33.9952 27.2542C33.761 28.1823 33.573 29.529 33.4468 31.2763C33.3362 33.0418 33.2567 34.8801 33.2393 36.7912C33.2529 38.7388 33.2978 40.5773 33.4205 42.3612C33.5433 44.1087 33.7442 45.4376 33.9922 46.3843C34.0387 46.5118 34.0853 46.6756 34.1473 46.8577C34.2249 47.058 34.3336 47.2219 34.4735 47.3859C34.7376 47.6956 35.0331 47.8233 35.3753 47.8236L37.7243 47.8441C38.5021 47.8448 39.171 47.9365 39.7152 48.1373C40.2907 48.3016 40.7571 48.5933 41.1455 49.0487C41.4408 49.3949 41.6892 49.8319 41.8909 50.3964C42.0926 50.9608 42.2475 51.6163 42.3712 52.3809L43.8546 62.6845C43.9783 63.4855 43.931 64.1953 43.7125 64.8504C43.4786 65.4872 43.1824 66.0512 42.7464 66.5604Z" stroke="#292D32" stroke-width="3" stroke-miterlimit="10"/>
<path opacity="0.4" d="M51.885 43.2737C52.8194 42.1825 53.5219 39.6532 53.6022 37.014C53.6824 34.5932 53.2026 32.0627 51.8973 30.5325" stroke="#292D32" stroke-width="7.07117" stroke-linecap="round" stroke-linejoin="round"/>
<path opacity="0.4" d="M57.3236 49.6505C63.3507 42.6122 63.3618 31.2179 57.3483 24.168" stroke="#292D32" stroke-width="7.07117" stroke-linecap="round" stroke-linejoin="round"/>
</svg>
