<svg width="74" height="75" viewBox="0 0 74 75" fill="none" xmlns="http://www.w3.org/2000/svg">
<path d="M11.058 27.9253C4.95116 27.9253 0 32.8765 0 38.9839C0 45.0914 4.95116 50.0425 11.058 50.0425H24.8404V63.8243C24.8404 69.9311 29.7916 74.8829 35.8984 74.8829C42.0058 74.8829 46.9563 69.9318 46.9563 63.8243V50.0425L24.8404 27.9253H11.058Z" fill="#2B8253"/>
<path d="M27.0437 11.0586C27.0437 4.95181 31.9942 0 38.1017 0C44.2078 0 49.1596 4.95116 49.1596 11.0586V24.8404H62.9421C69.0482 24.8404 74 29.7922 74 35.899C74 42.0065 69.0489 46.9583 62.9421 46.9583H49.1596L27.0437 24.8411V11.0586Z" fill="#63B885"/>
</svg>
